<svg width="153" height="177" viewBox="0 0 153 177" fill="none" xmlns="http://www.w3.org/2000/svg">
<path d="M43.1719 83.0195C42.5036 92.7105 42.5 93.6193 42.5 100.817C42.5 112.516 46.1092 122.578 52.7979 129.739C59.5039 136.919 69.1077 140.967 80.6504 140.967C100.385 140.967 112.982 128.203 118.31 114.326L149.114 139.272C136.187 160.465 113 174.501 81.1201 174.501C56.5306 174.501 36.9062 166.342 23.4404 153.153C9.97058 139.961 2.5 121.577 2.5 100.817C2.5 94.5015 2.50215 89.3503 2.97266 83.0195H43.1719Z" fill="white" stroke="black" stroke-width="5"/>
<path d="M75.6669 3.43701C107.334 0.466593 131.888 10.9624 147.046 28.7915L121.611 52.0259L119.253 54.1782C119.074 53.8603 118.889 53.5435 118.699 53.2271H118.7C111.788 41.608 98.3501 31.9657 79.8182 33.3667L78.9325 33.4419C61.6311 35.0608 50.4698 45.7116 47.0311 59.6196L4.57996 60.8628C6.56267 45.8435 13.4065 32.873 24.6669 23.0259C36.4597 12.7133 53.2334 5.71212 74.6434 3.53662L75.6669 3.43701Z" fill="white" stroke="black" stroke-width="5"/>
</svg>
