<svg width="222" height="180" viewBox="0 0 222 180" fill="none" xmlns="http://www.w3.org/2000/svg">
<g clip-path="url(#clip0_4659_355)">
<rect width="222" height="180" rx="20" fill="black"/>
<path d="M19.1133 0.5H202.887C208.219 0.5 212.642 2.09766 216.19 5.27441C219.736 8.4484 221.5 12.3831 221.5 17.1104V162.9C221.5 167.628 219.736 171.561 216.19 174.735C212.642 177.912 208.22 179.507 202.888 179.5H19.1016C13.7691 179.5 9.35016 177.905 5.80957 174.735C2.38285 171.668 0.619676 167.88 0.505859 163.341L0.5 162.899V17.0996C0.500096 12.3724 2.26452 8.44217 5.80957 5.27539C9.24743 2.20442 13.5054 0.60795 18.6162 0.504883L19.1133 0.5ZM11.3271 162.9C11.3273 164.701 12.1783 166.32 13.7764 167.751C15.3767 169.184 17.1483 169.918 19.1016 169.911V169.912H47.8096V137.147H11.3271V162.9ZM174.19 169.912H202.887C204.846 169.912 206.629 169.178 208.224 167.751C209.716 166.415 210.555 164.906 210.661 163.229L210.673 162.892V137.147H174.19V169.912ZM11.3389 127.559H47.8213V94.7939H11.3389V127.559ZM174.19 127.559H210.673V94.7939H174.19V127.559ZM11.3271 85.2061H47.8096V52.4414H11.3271V85.2061ZM174.19 85.2061H210.673V52.4414H174.19V85.2061ZM19.125 10.0879C17.166 10.0879 15.3823 10.8219 13.7881 12.249C12.1966 13.6739 11.3507 15.2933 11.3506 17.0996L11.3271 42.3525V42.8525H47.8096V10.0879H19.125ZM174.202 10.5879L174.19 42.3525V42.8525H210.673V17.1104C210.673 15.3033 209.822 13.6804 208.224 12.249C206.623 10.8162 204.844 10.0807 202.898 10.0879H174.202V10.5879Z" fill="#7C1212" stroke="white"/>
<path d="M119.5 88.4077V132.5H105.5V88.4077H119.5Z" fill="white" stroke="black" stroke-width="5"/>
<path d="M119.259 70.8252L105.216 72.3701L102.741 48.3057L116.783 46.7607L119.259 70.8252Z" fill="white" stroke="black" stroke-width="5"/>
</g>
<path d="M78.1719 84.5825C77.5036 94.2735 77.5 95.1822 77.5 102.38C77.5 114.079 81.1092 124.141 87.7979 131.302C94.5039 138.482 104.108 142.53 115.65 142.53C135.385 142.53 147.982 129.766 153.31 115.889L184.114 140.835C171.187 162.028 148 176.064 116.12 176.064C91.5306 176.064 71.9062 167.905 58.4404 154.716C44.9706 141.524 37.5 123.14 37.5 102.38C37.5 96.0645 37.5022 90.9133 37.9727 84.5825H78.1719Z" fill="white" stroke="black" stroke-width="5"/>
<path d="M110.667 5C142.334 2.02958 166.888 12.5254 182.046 30.3545L156.611 53.5889L154.253 55.7412C154.074 55.4233 153.889 55.1064 153.699 54.79H153.7C146.788 43.171 133.35 33.5287 114.818 34.9297L113.932 35.0049C96.6311 36.6238 85.4698 47.2746 82.0311 61.1826L39.58 62.4258C41.5627 47.4064 48.4065 34.436 59.6669 24.5889C71.4597 14.2763 88.2334 7.27511 109.643 5.09961L110.667 5Z" fill="white" stroke="black" stroke-width="5"/>
<defs>
<clipPath id="clip0_4659_355">
<rect width="222" height="180" rx="20" fill="white"/>
</clipPath>
</defs>
</svg>
