<svg width="626" height="198" viewBox="0 0 626 198" fill="none" xmlns="http://www.w3.org/2000/svg">
<g clip-path="url(#clip0_4178_293)">
<path d="M107.797 136.7C103.9 149.891 92.6445 162.678 74.2455 162.678C54.1148 162.678 41.4264 148.676 41.4264 128.166C41.4264 121.077 41.4264 120.762 42.2095 109.56H0.613757C-3.20449e-05 116.471 0 121.698 0 128.166C0 167.35 28.3562 198.001 74.6784 198.001C105.632 198.001 128.144 183.999 140.266 162.881L107.797 136.7Z" fill="white"/>
<path d="M148.491 109.545V196.38H187.454V109.545H148.491Z" fill="white"/>
<path d="M300.472 109.545L302.826 142.991L290.705 121.671L282.263 109.545H209.1V196.38H248.062V158.424V121.671L257.154 135.295L301.311 196.393H338.975V109.559H300.472V109.545Z" fill="white"/>
<path d="M399.584 163.893V137.685H460.842V109.532H360.621V196.366H471.665V163.88H399.584V163.893Z" fill="white"/>
<path d="M623.98 109.103L583.576 109.546C584.586 115.164 584.855 113.144 584.855 128.166C584.855 147.852 573.811 162.475 551.29 162.475C528.769 162.475 516.955 145.976 516.955 126.276C516.955 119.282 516.477 109.989 517.725 109.546C518.974 109.103 476.568 109.546 476.568 109.546C476.567 115.551 476.568 121.698 476.568 128.166C476.568 167.35 507.115 198 551.29 198C595.466 198 625.999 167.35 625.999 128.166L626 117.184L625.999 109.103H623.98Z" fill="white"/>
<path d="M69.4428 36.6189C28.3832 40.4536 4.4374 63.0567 1.63696 93.9098L45.1588 92.6405C47.5804 80.0158 57.2264 70.1455 72.8791 68.6872C89.3571 67.1479 101.222 75.5464 107.296 85.7138C107.973 86.8345 108.568 87.9822 109.109 89.1299L113.506 85.1332L138.534 62.368C124.166 44.3423 100.234 33.7429 69.4428 36.6189Z" fill="white"/>
<path d="M180.906 36.1055L142.146 39.7241L148.234 89.9263L186.994 86.3076L180.906 36.1055Z" fill="white"/>
<path d="M331.615 22.0225L292.856 25.6411L297.537 64.2986L298.864 75.7655L337.676 72.2246L331.602 22.0225H331.615ZM285.577 77.099L241.19 30.475L202.43 34.0937L208.518 84.2958L242.461 81.1227L243.638 77.9631L245.979 80.7987L285.591 77.099H285.577Z" fill="white"/>
<path d="M467.146 39.1437L463.574 9.69482L353.113 20.0107L359.201 69.9428L397.933 66.2296L395.444 45.8409L467.146 39.1437Z" fill="white"/>
<path d="M542.568 0.445686C503.416 4.10485 477.725 28.8549 475.656 59.3299L518.975 55.5614C520.994 37.3779 529.072 32.3269 549.265 30.3064C567.44 31.3166 580.565 40.4085 579.294 54.5512H622.972C627.01 21.2146 581.748 -3.22698 542.582 0.432184L542.568 0.445686Z" fill="white"/>
</g>
<defs>
<clipPath id="clip0_4178_293">
<rect width="626" height="198" fill="white"/>
</clipPath>
</defs>
</svg>
