<svg id="visual" viewBox="0 0 960 540" width="960" height="540" xmlns="http://www.w3.org/2000/svg" xmlns:xlink="http://www.w3.org/1999/xlink" version="1.1"><path d="M0 125L40 135.8C80 146.7 160 168.3 240 154.8C320 141.3 400 92.7 480 93.5C560 94.3 640 144.7 720 144.7C800 144.7 880 94.3 920 69.2L960 44L960 0L920 0C880 0 800 0 720 0C640 0 560 0 480 0C400 0 320 0 240 0C160 0 80 0 40 0L0 0Z" fill="#353535"></path><path d="M0 309L40 320.7C80 332.3 160 355.7 240 377.2C320 398.7 400 418.3 480 403C560 387.7 640 337.3 720 321.2C800 305 880 323 920 332L960 341L960 42L920 67.2C880 92.3 800 142.7 720 142.7C640 142.7 560 92.3 480 91.5C400 90.7 320 139.3 240 152.8C160 166.3 80 144.7 40 133.8L0 123Z" fill="#121212"></path><path d="M0 541L40 541C80 541 160 541 240 541C320 541 400 541 480 541C560 541 640 541 720 541C800 541 880 541 920 541L960 541L960 339L920 330C880 321 800 303 720 319.2C640 335.3 560 385.7 480 401C400 416.3 320 396.7 240 375.2C160 353.7 80 330.3 40 318.7L0 307Z" fill="#0e0e0e"></path></svg>