<svg id="visual" viewBox="0 0 960 540" width="960" height="540" xmlns="http://www.w3.org/2000/svg" xmlns:xlink="http://www.w3.org/1999/xlink" version="1.1"><path d="M0 82L22.8 90.2C45.7 98.3 91.3 114.7 137 128.2C182.7 141.7 228.3 152.3 274 147.8C319.7 143.3 365.3 123.7 411.2 123.7C457 123.7 503 143.3 548.8 146C594.7 148.7 640.3 134.3 686 123.5C731.7 112.7 777.3 105.3 823 105.3C868.7 105.3 914.3 112.7 937.2 116.3L960 120L960 0L937.2 0C914.3 0 868.7 0 823 0C777.3 0 731.7 0 686 0C640.3 0 594.7 0 548.8 0C503 0 457 0 411.2 0C365.3 0 319.7 0 274 0C228.3 0 182.7 0 137 0C91.3 0 45.7 0 22.8 0L0 0Z" fill="#353535"></path><path d="M0 395L22.8 369.8C45.7 344.7 91.3 294.3 137 300.7C182.7 307 228.3 370 274 372.7C319.7 375.3 365.3 317.7 411.2 314C457 310.3 503 360.7 548.8 368.8C594.7 377 640.3 343 686 310.7C731.7 278.3 777.3 247.7 823 234.2C868.7 220.7 914.3 224.3 937.2 226.2L960 228L960 118L937.2 114.3C914.3 110.7 868.7 103.3 823 103.3C777.3 103.3 731.7 110.7 686 121.5C640.3 132.3 594.7 146.7 548.8 144C503 141.3 457 121.7 411.2 121.7C365.3 121.7 319.7 141.3 274 145.8C228.3 150.3 182.7 139.7 137 126.2C91.3 112.7 45.7 96.3 22.8 88.2L0 80Z" fill="#121212"></path><path d="M0 541L22.8 541C45.7 541 91.3 541 137 541C182.7 541 228.3 541 274 541C319.7 541 365.3 541 411.2 541C457 541 503 541 548.8 541C594.7 541 640.3 541 686 541C731.7 541 777.3 541 823 541C868.7 541 914.3 541 937.2 541L960 541L960 226L937.2 224.2C914.3 222.3 868.7 218.7 823 232.2C777.3 245.7 731.7 276.3 686 308.7C640.3 341 594.7 375 548.8 366.8C503 358.7 457 308.3 411.2 312C365.3 315.7 319.7 373.3 274 370.7C228.3 368 182.7 305 137 298.7C91.3 292.3 45.7 342.7 22.8 367.8L0 393Z" fill="#0e0e0e"></path></svg>