<svg id="visual" viewBox="0 0 960 540" width="960" height="540" xmlns="http://www.w3.org/2000/svg" xmlns:xlink="http://www.w3.org/1999/xlink" version="1.1"><path d="M0 141L11.5 123C23 105 46 69 68.8 52C91.7 35 114.3 37 137.2 48.8C160 60.7 183 82.3 205.8 79.7C228.7 77 251.3 50 274.2 41C297 32 320 41 342.8 50.8C365.7 60.7 388.3 71.3 411.2 78.5C434 85.7 457 89.3 480 92C503 94.7 526 96.3 548.8 84.7C571.7 73 594.3 48 617.2 38.2C640 28.3 663 33.7 685.8 48C708.7 62.3 731.3 85.7 754.2 96.5C777 107.3 800 105.7 822.8 97.5C845.7 89.3 868.3 74.7 891.2 74.7C914 74.7 937 89.3 948.5 96.7L960 104L960 0L948.5 0C937 0 914 0 891.2 0C868.3 0 845.7 0 822.8 0C800 0 777 0 754.2 0C731.3 0 708.7 0 685.8 0C663 0 640 0 617.2 0C594.3 0 571.7 0 548.8 0C526 0 503 0 480 0C457 0 434 0 411.2 0C388.3 0 365.7 0 342.8 0C320 0 297 0 274.2 0C251.3 0 228.7 0 205.8 0C183 0 160 0 137.2 0C114.3 0 91.7 0 68.8 0C46 0 23 0 11.5 0L0 0Z" fill="#353535"></path><path d="M0 168L11.5 149.2C23 130.3 46 92.7 68.8 78.3C91.7 64 114.3 73 137.2 93.7C160 114.3 183 146.7 205.8 146.7C228.7 146.7 251.3 114.3 274.2 98.2C297 82 320 82 342.8 99.2C365.7 116.3 388.3 150.7 411.2 158.8C434 167 457 149 480 140.8C503 132.7 526 134.3 548.8 128.8C571.7 123.3 594.3 110.7 617.2 106.2C640 101.7 663 105.3 685.8 117C708.7 128.7 731.3 148.3 754.2 152.8C777 157.3 800 146.7 822.8 136C845.7 125.3 868.3 114.7 891.2 114.7C914 114.7 937 125.3 948.5 130.7L960 136L960 102L948.5 94.7C937 87.3 914 72.7 891.2 72.7C868.3 72.7 845.7 87.3 822.8 95.5C800 103.7 777 105.3 754.2 94.5C731.3 83.7 708.7 60.3 685.8 46C663 31.7 640 26.3 617.2 36.2C594.3 46 571.7 71 548.8 82.7C526 94.3 503 92.7 480 90C457 87.3 434 83.7 411.2 76.5C388.3 69.3 365.7 58.7 342.8 48.8C320 39 297 30 274.2 39C251.3 48 228.7 75 205.8 77.7C183 80.3 160 58.7 137.2 46.8C114.3 35 91.7 33 68.8 50C46 67 23 103 11.5 121L0 139Z" fill="#2b2b2b"></path><path d="M0 287L11.5 270.8C23 254.7 46 222.3 68.8 220.5C91.7 218.7 114.3 247.3 137.2 260.8C160 274.3 183 272.7 205.8 269.2C228.7 265.7 251.3 260.3 274.2 268.5C297 276.7 320 298.3 342.8 297.3C365.7 296.3 388.3 272.7 411.2 264.5C434 256.3 457 263.7 480 271.8C503 280 526 289 548.8 271C571.7 253 594.3 208 617.2 183.7C640 159.3 663 155.7 685.8 178.2C708.7 200.7 731.3 249.3 754.2 274.5C777 299.7 800 301.3 822.8 302.2C845.7 303 868.3 303 891.2 302.2C914 301.3 937 299.7 948.5 298.8L960 298L960 134L948.5 128.7C937 123.3 914 112.7 891.2 112.7C868.3 112.7 845.7 123.3 822.8 134C800 144.7 777 155.3 754.2 150.8C731.3 146.3 708.7 126.7 685.8 115C663 103.3 640 99.7 617.2 104.2C594.3 108.7 571.7 121.3 548.8 126.8C526 132.3 503 130.7 480 138.8C457 147 434 165 411.2 156.8C388.3 148.7 365.7 114.3 342.8 97.2C320 80 297 80 274.2 96.2C251.3 112.3 228.7 144.7 205.8 144.7C183 144.7 160 112.3 137.2 91.7C114.3 71 91.7 62 68.8 76.3C46 90.7 23 128.3 11.5 147.2L0 166Z" fill="#212121"></path><path d="M0 298L11.5 292.7C23 287.3 46 276.7 68.8 277.5C91.7 278.3 114.3 290.7 137.2 301.3C160 312 183 321 205.8 322.8C228.7 324.7 251.3 319.3 274.2 319.3C297 319.3 320 324.7 342.8 323.8C365.7 323 388.3 316 411.2 313.3C434 310.7 457 312.3 480 319.5C503 326.7 526 339.3 548.8 325.8C571.7 312.3 594.3 272.7 617.2 243.8C640 215 663 197 685.8 212.3C708.7 227.7 731.3 276.3 754.2 299.8C777 323.3 800 321.7 822.8 329.8C845.7 338 868.3 356 891.2 356.8C914 357.7 937 341.3 948.5 333.2L960 325L960 296L948.5 296.8C937 297.7 914 299.3 891.2 300.2C868.3 301 845.7 301 822.8 300.2C800 299.3 777 297.7 754.2 272.5C731.3 247.3 708.7 198.7 685.8 176.2C663 153.7 640 157.3 617.2 181.7C594.3 206 571.7 251 548.8 269C526 287 503 278 480 269.8C457 261.7 434 254.3 411.2 262.5C388.3 270.7 365.7 294.3 342.8 295.3C320 296.3 297 274.7 274.2 266.5C251.3 258.3 228.7 263.7 205.8 267.2C183 270.7 160 272.3 137.2 258.8C114.3 245.3 91.7 216.7 68.8 218.5C46 220.3 23 252.7 11.5 268.8L0 285Z" fill="#171717"></path><path d="M0 357L11.5 348C23 339 46 321 68.8 320.2C91.7 319.3 114.3 335.7 137.2 345.7C160 355.7 183 359.3 205.8 354.8C228.7 350.3 251.3 337.7 274.2 339.5C297 341.3 320 357.7 342.8 356.8C365.7 356 388.3 338 411.2 331.7C434 325.3 457 330.7 480 337.8C503 345 526 354 548.8 342.3C571.7 330.7 594.3 298.3 617.2 277.7C640 257 663 248 685.8 266C708.7 284 731.3 329 754.2 346C777 363 800 352 822.8 355.5C845.7 359 868.3 377 891.2 381.5C914 386 937 377 948.5 372.5L960 368L960 323L948.5 331.2C937 339.3 914 355.7 891.2 354.8C868.3 354 845.7 336 822.8 327.8C800 319.7 777 321.3 754.2 297.8C731.3 274.3 708.7 225.7 685.8 210.3C663 195 640 213 617.2 241.8C594.3 270.7 571.7 310.3 548.8 323.8C526 337.3 503 324.7 480 317.5C457 310.3 434 308.7 411.2 311.3C388.3 314 365.7 321 342.8 321.8C320 322.7 297 317.3 274.2 317.3C251.3 317.3 228.7 322.7 205.8 320.8C183 319 160 310 137.2 299.3C114.3 288.7 91.7 276.3 68.8 275.5C46 274.7 23 285.3 11.5 290.7L0 296Z" fill="#111111"></path><path d="M0 390L11.5 382.8C23 375.7 46 361.3 68.8 363.2C91.7 365 114.3 383 137.2 389.2C160 395.3 183 389.7 205.8 378.8C228.7 368 251.3 352 274.2 363.8C297 375.7 320 415.3 342.8 415.3C365.7 415.3 388.3 375.7 411.2 367.5C434 359.3 457 382.7 480 401.5C503 420.3 526 434.7 548.8 421.2C571.7 407.7 594.3 366.3 617.2 342C640 317.7 663 310.3 685.8 324.7C708.7 339 731.3 375 754.2 392.2C777 409.3 800 407.7 822.8 413.2C845.7 418.7 868.3 431.3 891.2 439.5C914 447.7 937 451.3 948.5 453.2L960 455L960 366L948.5 370.5C937 375 914 384 891.2 379.5C868.3 375 845.7 357 822.8 353.5C800 350 777 361 754.2 344C731.3 327 708.7 282 685.8 264C663 246 640 255 617.2 275.7C594.3 296.3 571.7 328.7 548.8 340.3C526 352 503 343 480 335.8C457 328.7 434 323.3 411.2 329.7C388.3 336 365.7 354 342.8 354.8C320 355.7 297 339.3 274.2 337.5C251.3 335.7 228.7 348.3 205.8 352.8C183 357.3 160 353.7 137.2 343.7C114.3 333.7 91.7 317.3 68.8 318.2C46 319 23 337 11.5 346L0 355Z" fill="#101010"></path><path d="M0 438L11.5 426.3C23 414.7 46 391.3 68.8 395C91.7 398.7 114.3 429.3 137.2 440.2C160 451 183 442 205.8 432.2C228.7 422.3 251.3 411.7 274.2 423.3C297 435 320 469 342.8 463.5C365.7 458 388.3 413 411.2 403.2C434 393.3 457 418.7 480 435.8C503 453 526 462 548.8 446.7C571.7 431.3 594.3 391.7 617.2 373.7C640 355.7 663 359.3 685.8 377.3C708.7 395.3 731.3 427.7 754.2 437.5C777 447.3 800 434.7 822.8 441C845.7 447.3 868.3 472.7 891.2 484.3C914 496 937 494 948.5 493L960 492L960 453L948.5 451.2C937 449.3 914 445.7 891.2 437.5C868.3 429.3 845.7 416.7 822.8 411.2C800 405.7 777 407.3 754.2 390.2C731.3 373 708.7 337 685.8 322.7C663 308.3 640 315.7 617.2 340C594.3 364.3 571.7 405.7 548.8 419.2C526 432.7 503 418.3 480 399.5C457 380.7 434 357.3 411.2 365.5C388.3 373.7 365.7 413.3 342.8 413.3C320 413.3 297 373.7 274.2 361.8C251.3 350 228.7 366 205.8 376.8C183 387.7 160 393.3 137.2 387.2C114.3 381 91.7 363 68.8 361.2C46 359.3 23 373.7 11.5 380.8L0 388Z" fill="#0f0f0f"></path><path d="M0 541L11.5 541C23 541 46 541 68.8 541C91.7 541 114.3 541 137.2 541C160 541 183 541 205.8 541C228.7 541 251.3 541 274.2 541C297 541 320 541 342.8 541C365.7 541 388.3 541 411.2 541C434 541 457 541 480 541C503 541 526 541 548.8 541C571.7 541 594.3 541 617.2 541C640 541 663 541 685.8 541C708.7 541 731.3 541 754.2 541C777 541 800 541 822.8 541C845.7 541 868.3 541 891.2 541C914 541 937 541 948.5 541L960 541L960 490L948.5 491C937 492 914 494 891.2 482.3C868.3 470.7 845.7 445.3 822.8 439C800 432.7 777 445.3 754.2 435.5C731.3 425.7 708.7 393.3 685.8 375.3C663 357.3 640 353.7 617.2 371.7C594.3 389.7 571.7 429.3 548.8 444.7C526 460 503 451 480 433.8C457 416.7 434 391.3 411.2 401.2C388.3 411 365.7 456 342.8 461.5C320 467 297 433 274.2 421.3C251.3 409.7 228.7 420.3 205.8 430.2C183 440 160 449 137.2 438.2C114.3 427.3 91.7 396.7 68.8 393C46 389.3 23 412.7 11.5 424.3L0 436Z" fill="#0e0e0e"></path></svg>